HIERARCHY
ROOT Hips
{
  OFFSET 5.72205e-005 65.662 3.42586
  CHANNELS 6 Xposition Yposition Zposition Zrotation Xrotation Yrotation
  JOINT Chest
  {
    OFFSET 0 8.7983 -4.7612
    CHANNELS 6 Xposition Yposition Zposition Zrotation Xrotation Yrotation
    JOINT Chest2
    {
      OFFSET 0 8.0291 0.4195
      CHANNELS 6 Xposition Yposition Zposition Zrotation Xrotation Yrotation
      JOINT Chest3
      {
        OFFSET 0 9.9351 -2.2114
        CHANNELS 6 Xposition Yposition Zposition Zrotation Xrotation Yrotation
        JOINT Neck
        {
          OFFSET 0 22.3885 -0.4656
          CHANNELS 6 Xposition Yposition Zposition Zrotation Xrotation Yrotation
          JOINT Head
          {
            OFFSET -0.0001 12.643 3.4389
            CHANNELS 6 Xposition Yposition Zposition Zrotation Xrotation Yrotation
            End Site
            {
              OFFSET 0.0001 17.6655 0.5274
            }
          }
        }
        JOINT LeftCollar
        {
          OFFSET 2.2603 21.606 7.4023
          CHANNELS 6 Xposition Yposition Zposition Zrotation Xrotation Yrotation
          JOINT LeftShoulder
          {
            OFFSET 13.5163 -1.1332 -5.0146
            CHANNELS 6 Xposition Yposition Zposition Zrotation Xrotation Yrotation
            JOINT LeftElbow
            {
              OFFSET -0.0995 -28.05 -0.2431
              CHANNELS 6 Xposition Yposition Zposition Zrotation Xrotation Yrotation
              JOINT LeftWrist
              {
                OFFSET 0.0679 -23.3996 -0.1402
                CHANNELS 6 Xposition Yposition Zposition Zrotation Xrotation Yrotation
                JOINT LeftFinger1
                {
                  OFFSET 0.7932 -9.069 2.5189
                  CHANNELS 6 Xposition Yposition Zposition Zrotation Xrotation Yrotation
                  JOINT LeftFinger11
                  {
                    OFFSET -0.8272 -3.3923 0.5977
                    CHANNELS 6 Xposition Yposition Zposition Zrotation Xrotation Yrotation
                    JOINT LeftFinger12
                    {
                      OFFSET -0.5649 -2.3158 0.4082
                      CHANNELS 6 Xposition Yposition Zposition Zrotation Xrotation Yrotation
                      End Site
                      {
                        OFFSET -0.4919 -1.6479 0.2673
                      }
                    }
                  }
                }
                JOINT LeftFinger2
                {
                  OFFSET 0.9159 -9.2044 0.2193
                  CHANNELS 6 Xposition Yposition Zposition Zrotation Xrotation Yrotation
                  JOINT LeftFinger21
                  {
                    OFFSET 0.0117 -4.1944 -0.0248
                    CHANNELS 6 Xposition Yposition Zposition Zrotation Xrotation Yrotation
                    JOINT LeftFinger22
                    {
                      OFFSET 0.0071 -2.3249 -0.0142
                      CHANNELS 6 Xposition Yposition Zposition Zrotation Xrotation Yrotation
                      End Site
                      {
                        OFFSET -0.1475 -2.0882 0.0028
                      }
                    }
                  }
                }
                JOINT LeftFinger3
                {
                  OFFSET 0.6113 -8.7231 -2.0637
                  CHANNELS 6 Xposition Yposition Zposition Zrotation Xrotation Yrotation
                  JOINT LeftFinger31
                  {
                    OFFSET -0.1927 -3.8059 -0.2383
                    CHANNELS 6 Xposition Yposition Zposition Zrotation Xrotation Yrotation
                    JOINT LeftFinger32
                    {
                      OFFSET -0.1091 -2.1688 -0.1362
                      CHANNELS 6 Xposition Yposition Zposition Zrotation Xrotation Yrotation
                      End Site
                      {
                        OFFSET -0.2358 -1.9176 -0.0906
                      }
                    }
                  }
                }
                JOINT LeftFinger4
                {
                  OFFSET -0.6151 -8.0947 -3.5641
                  CHANNELS 6 Xposition Yposition Zposition Zrotation Xrotation Yrotation
                  JOINT LeftFinger41
                  {
                    OFFSET -0.4882 -2.341 -0.6462
                    CHANNELS 6 Xposition Yposition Zposition Zrotation Xrotation Yrotation
                    JOINT LeftFinger42
                    {
                      OFFSET -0.3575 -1.7167 -0.4742
                      CHANNELS 6 Xposition Yposition Zposition Zrotation Xrotation Yrotation
                      End Site
                      {
                        OFFSET -0.4187 -1.5237 -0.3496
                      }
                    }
                  }
                }
                JOINT LeftFinger0
                {
                  OFFSET -1.42 -1.8761 1.4223
                  CHANNELS 6 Xposition Yposition Zposition Zrotation Xrotation Yrotation
                  JOINT LeftFinger01
                  {
                    OFFSET -1.1471 -3.4929 2.6334
                    CHANNELS 6 Xposition Yposition Zposition Zrotation Xrotation Yrotation
                    JOINT LeftFinger02
                    {
                      OFFSET -0.823 -2.3 1.6571
                      CHANNELS 6 Xposition Yposition Zposition Zrotation Xrotation Yrotation
                      End Site
                      {
                        OFFSET -0.5822 -1.6914 1.1582
                      }
                    }
                  }
                }
              }
            }
          }
        }
        JOINT RightCollar
        {
          OFFSET -2.2603 21.606 7.4023
          CHANNELS 6 Xposition Yposition Zposition Zrotation Xrotation Yrotation
          JOINT RightShoulder
          {
            OFFSET -13.5187 -1.1334 -5.0155
            CHANNELS 6 Xposition Yposition Zposition Zrotation Xrotation Yrotation
            JOINT RightElbow
            {
              OFFSET 0.0994 -28.0499 -0.2431
              CHANNELS 6 Xposition Yposition Zposition Zrotation Xrotation Yrotation
              JOINT RightWrist
              {
                OFFSET -0.0679 -23.3996 -0.1402
                CHANNELS 6 Xposition Yposition Zposition Zrotation Xrotation Yrotation
                JOINT RightFinger1
                {
                  OFFSET -0.7932 -9.0691 2.5189
                  CHANNELS 6 Xposition Yposition Zposition Zrotation Xrotation Yrotation
                  JOINT RightFinger11
                  {
                    OFFSET 0.8272 -3.3923 0.5977
                    CHANNELS 6 Xposition Yposition Zposition Zrotation Xrotation Yrotation
                    JOINT RightFinger12
                    {
                      OFFSET 0.565 -2.3158 0.4082
                      CHANNELS 6 Xposition Yposition Zposition Zrotation Xrotation Yrotation
                      End Site
                      {
                        OFFSET 0.4919 -1.6479 0.2673
                      }
                    }
                  }
                }
                JOINT RightFinger2
                {
                  OFFSET -0.916 -9.2044 0.2193
                  CHANNELS 6 Xposition Yposition Zposition Zrotation Xrotation Yrotation
                  JOINT RightFinger21
                  {
                    OFFSET -0.0117 -4.1944 -0.0248
                    CHANNELS 6 Xposition Yposition Zposition Zrotation Xrotation Yrotation
                    JOINT RightFinger22
                    {
                      OFFSET -0.0071 -2.3249 -0.0142
                      CHANNELS 6 Xposition Yposition Zposition Zrotation Xrotation Yrotation
                      End Site
                      {
                        OFFSET 0.1475 -2.0882 0.0028
                      }
                    }
                  }
                }
                JOINT RightFinger3
                {
                  OFFSET -0.6113 -8.7231 -2.0637
                  CHANNELS 6 Xposition Yposition Zposition Zrotation Xrotation Yrotation
                  JOINT RightFinger31
                  {
                    OFFSET 0.1927 -3.8059 -0.2383
                    CHANNELS 6 Xposition Yposition Zposition Zrotation Xrotation Yrotation
                    JOINT RightFinger32
                    {
                      OFFSET 0.1091 -2.1688 -0.1362
                      CHANNELS 6 Xposition Yposition Zposition Zrotation Xrotation Yrotation
                      End Site
                      {
                        OFFSET 0.2358 -1.9176 -0.0906
                      }
                    }
                  }
                }
                JOINT RightFinger4
                {
                  OFFSET 0.6151 -8.0947 -3.564
                  CHANNELS 6 Xposition Yposition Zposition Zrotation Xrotation Yrotation
                  JOINT RightFinger41
                  {
                    OFFSET 0.4882 -2.341 -0.6462
                    CHANNELS 6 Xposition Yposition Zposition Zrotation Xrotation Yrotation
                    JOINT RightFinger42
                    {
                      OFFSET 0.3574 -1.7166 -0.4742
                      CHANNELS 6 Xposition Yposition Zposition Zrotation Xrotation Yrotation
                      End Site
                      {
                        OFFSET 0.4187 -1.5237 -0.3496
                      }
                    }
                  }
                }
                JOINT RightFinger0
                {
                  OFFSET 1.4199 -1.8761 1.4221
                  CHANNELS 6 Xposition Yposition Zposition Zrotation Xrotation Yrotation
                  JOINT RightFinger01
                  {
                    OFFSET 1.1472 -3.4929 2.6336
                    CHANNELS 6 Xposition Yposition Zposition Zrotation Xrotation Yrotation
                    JOINT RightFinger02
                    {
                      OFFSET 0.8229 -2.3 1.6571
                      CHANNELS 6 Xposition Yposition Zposition Zrotation Xrotation Yrotation
                      End Site
                      {
                        OFFSET 0.5822 -1.6914 1.1582
                      }
                    }
                  }
                }
              }
            }
          }
        }
      }
    }
  }
  JOINT RightHip
  {
    OFFSET -9.412 3.9771 -0.7758
    CHANNELS 6 Xposition Yposition Zposition Zrotation Xrotation Yrotation
    JOINT RightKnee
    {
      OFFSET -0.7531 -40.938 0
      CHANNELS 6 Xposition Yposition Zposition Zrotation Xrotation Yrotation
      JOINT RightAnkle
      {
        OFFSET 0 -40.1986 0
        CHANNELS 6 Xposition Yposition Zposition Zrotation Xrotation Yrotation
        JOINT RightToe
        {
          OFFSET 0 -4.4182 9.239
          CHANNELS 6 Xposition Yposition Zposition Zrotation Xrotation Yrotation
          End Site
          {
            OFFSET 0 0 6.1981
          }
        }
      }
    }
  }
  JOINT LeftHip
  {
    OFFSET 9.4119 3.9773 -0.7758
    CHANNELS 6 Xposition Yposition Zposition Zrotation Xrotation Yrotation
    JOINT LeftKnee
    {
      OFFSET 0.7532 -40.9383 0
      CHANNELS 6 Xposition Yposition Zposition Zrotation Xrotation Yrotation
      JOINT LeftAnkle
      {
        OFFSET 0 -40.1986 0
        CHANNELS 6 Xposition Yposition Zposition Zrotation Xrotation Yrotation
        JOINT LeftToe
        {
          OFFSET 0 -4.4182 9.239
          CHANNELS 6 Xposition Yposition Zposition Zrotation Xrotation Yrotation
          End Site
          {
            OFFSET 0 0 6.1981
          }
        }
      }
    }
  }
}
MOTION
Frames:	4
Frame Time:	0.0333333
10.3156 64.9561 47.1294 -7.01671e-015 7.01671e-015 180 -1.77636e-015 8.7983 -4.7612 -0.925938 -0.560462 -1.31667 1.77636e-015 8.0291 0.4195 -1.86464 -1.09942 -2.64241 3.55271e-015 9.9351 -2.2114 -1.86463 -1.09942 -2.6424 -3.55271e-015 22.3885 -0.4656 0.858057 16.7498 -0.270436 -0.0001 12.643 3.4389 11.1956 2.86871 -0.272431 2.2603 21.606 7.4023 -65.0898 -3.17681 -8.06383 13.5163 -1.1332 -5.0146 88.2464 15.9207 11.6807 -0.0995 -28.05 -0.2431 -117.79 -45.3944 -62.6978 0.0679 -23.3996 -0.1402 -33.3849 0.0593134 -12.7875 0.7932 -9.069 2.5189 9.54166e-015 -5.06901e-015 2.5842e-015 -0.8272 -3.3923 0.5977 3.18055e-015 -2.38542e-015 5.96354e-016 -0.5649 -2.3158 0.4082 -3.31043e-032 -2.38542e-015 -7.95139e-016 0.9159 -9.2044 0.2193 9.54166e-015 -5.06901e-015 2.5842e-015 0.0117 -4.1944 -0.0248 -0.0128347 0.00233111 8.88756e-005 0.0071 -2.3249 -0.0142 6.36111e-015 -1.71949e-014 1.78906e-015 0.6113 -8.7231 -2.0637 9.54166e-015 -5.06901e-015 2.5842e-015 -0.1927 -3.8059 -0.2383 -0.0160725 0.00299908 0.000854392 -0.1091 -2.1688 -0.1362 3.18055e-015 5.46658e-015 -1.98785e-015 -0.6151 -8.0947 -3.5641 9.54166e-015 -5.06901e-015 2.5842e-015 -0.4882 -2.341 -0.6462 -0.0125861 0.00313518 0.00283114 -0.3575 -1.7167 -0.4742 -2.54144e-031 -6.65929e-015 -2.18663e-015 -1.42 -1.8761 1.4223 9.54166e-015 -5.06901e-015 2.5842e-015 -1.1471 -3.4929 2.6334 3.18055e-015 -2.38542e-015 5.96354e-016 -0.823 -2.3 1.6571 -3.31043e-032 -2.38542e-015 -7.95139e-016 -2.2603 21.606 7.4023 57.7034 -0.511114 30.1771 -13.5187 -1.1334 -5.0155 -95.8734 16.8926 -13.3457 0.0994 -28.0499 -0.2431 128.461 -50.2061 72.6452 -0.0679 -23.3996 -0.1402 35.689 -7.2125 31.0533 -0.7932 -9.0691 2.5189 5.96312e-006 -2.12571e-007 -2.11759e-007 0.8272 -3.3923 0.5977 3.68062e-006 4.2209e-006 -4.9395e-006 0.565 -2.3158 0.4082 -4.77083e-015 6.36111e-015 -9.54166e-015 -0.916 -9.2044 0.2193 5.96312e-006 -2.12571e-007 -2.11759e-007 -0.0117 -4.1944 -0.0248 0.012966 0.00231568 -9.09644e-005 -0.0071 -2.3249 -0.0142 1.11349e-005 1.03624e-005 -5.20375e-006 -0.6113 -8.7231 -2.0637 5.96312e-006 -2.12571e-007 -2.11759e-007 0.1927 -3.8059 -0.2383 0.0163707 0.00304009 -0.000880204 0.1091 -2.1688 -0.1362 -2.34844e-006 -1.56442e-006 5.93848e-008 0.6151 -8.0947 -3.564 5.96312e-006 -2.12571e-007 -2.11759e-007 0.4882 -2.341 -0.6462 0.0146041 0.00368479 -0.00327658 0.3574 -1.7166 -0.4742 1.47377e-005 2.9812e-006 -2.8788e-006 1.4199 -1.8761 1.4221 5.96312e-006 -2.12571e-007 -2.11759e-007 1.1472 -3.4929 2.6336 3.68062e-006 4.2209e-006 -4.9395e-006 0.8229 -2.3 1.6571 -4.77083e-015 6.36111e-015 -9.54166e-015 -9.412 3.9771 -0.7758 -9.47137 -16.5242 -3.30572 -0.7531 -40.938 7.10543e-015 -2.77089 33.0088 1.53749 7.10543e-015 -40.1986 7.10543e-015 -11.7556 -19.5829 -4.81361 3.55271e-015 -4.4182 9.239 -9.20525e-006 -8.99953e-007 2.89981e-008 9.4119 3.9773 -0.7758 9.65613 -4.77374 0.860335 0.7532 -40.9383 0 0.0879453 20.1823 -0.249584 0 -40.1986 0 -1.95355 -6.87019 25.1821 0 -4.4182 9.239 -3.18055e-015 0 6.36111e-015 
10.215 64.9561 47.1342 -7.01671e-015 7.01671e-015 180 -1.77636e-015 8.7983 -4.7612 -0.933449 -0.564317 -1.31457 0 8.0291 0.4195 -1.87972 -1.10699 -2.63833 0 9.9351 -2.2114 -1.87972 -1.10699 -2.63833 0 22.3885 -0.4656 0.851948 16.6402 -0.267729 -0.0001 12.643 3.4389 11.1222 2.85018 -0.268772 2.2603 21.606 7.4023 -65.0363 -3.14138 -8.15278 13.5163 -1.1332 -5.0146 88.2464 15.9207 11.6807 -0.0995 -28.05 -0.2431 -118.056 -45.5322 -62.8539 0.0679 -23.3996 -0.1402 -33.3192 0.155171 -12.7626 0.7932 -9.069 2.5189 -1.10769e-005 -2.9579e-006 -6.247e-006 -0.8272 -3.3923 0.5977 3.85527e-031 -8.54774e-015 2.5842e-015 -0.5649 -2.3158 0.4082 3.18055e-015 -1.78906e-015 1.98785e-016 0.9159 -9.2044 0.2193 -1.10769e-005 -2.9579e-006 -6.247e-006 0.0117 -4.1944 -0.0248 -0.012829 0.00234422 7.84856e-005 0.0071 -2.3249 -0.0142 9.10368e-032 -8.74653e-015 5.96354e-016 0.6113 -8.7231 -2.0637 -1.10769e-005 -2.9579e-006 -6.247e-006 -0.1927 -3.8059 -0.2383 -0.0160607 0.0030083 0.000852556 -0.1091 -2.1688 -0.1362 1.27222e-014 -1.88845e-015 3.97569e-015 -0.6151 -8.0947 -3.5641 -1.10769e-005 -2.9579e-006 -6.247e-006 -0.4882 -2.341 -0.6462 -0.0125807 0.00314205 0.00282318 -0.3575 -1.7167 -0.4742 -8.68988e-032 -3.57812e-015 -1.39149e-015 -1.42 -1.8761 1.4223 -1.10769e-005 -2.9579e-006 -6.247e-006 -1.1471 -3.4929 2.6334 3.85527e-031 -8.54774e-015 2.5842e-015 -0.823 -2.3 1.6571 3.18055e-015 -1.78906e-015 1.98785e-016 -2.2603 21.606 7.4023 57.6584 -0.526677 30.2493 -13.5187 -1.1334 -5.0155 -95.793 16.649 -13.3653 0.0994 -28.0499 -0.2431 128.639 -50.3312 72.7177 -0.0679 -23.3996 -0.1402 35.506 -7.30711 31.005 -0.7932 -9.0691 2.5189 2.25971e-006 -1.26391e-006 1.19913e-005 0.8272 -3.3923 0.5977 1.72827e-005 4.72771e-006 1.76638e-006 0.565 -2.3158 0.4082 -6.42412e-006 1.59351e-006 2.65694e-006 -0.916 -9.2044 0.2193 2.25971e-006 -1.26391e-006 1.19913e-005 -0.0117 -4.1944 -0.0248 0.0129642 0.00232009 -8.42094e-005 -0.0071 -2.3249 -0.0142 -1.30357e-006 -2.0345e-006 4.88429e-006 -0.6113 -8.7231 -2.0637 2.25971e-006 -1.26391e-006 1.19913e-005 0.1927 -3.8059 -0.2383 0.016346 0.00303769 -0.000871293 0.1091 -2.1688 -0.1362 -9.1834e-006 -7.24692e-006 3.44002e-007 0.6151 -8.0947 -3.564 2.25971e-006 -1.26391e-006 1.19913e-005 0.4882 -2.341 -0.6462 0.0144855 0.00365663 -0.00323585 0.3574 -1.7166 -0.4742 -7.91169e-006 -6.70776e-007 2.71444e-006 1.4199 -1.8761 1.4221 2.25971e-006 -1.26391e-006 1.19913e-005 1.1472 -3.4929 2.6336 1.72827e-005 4.72771e-006 1.76638e-006 0.8229 -2.3 1.6571 -6.42412e-006 1.59351e-006 2.65694e-006 -9.412 3.9771 -0.7758 -9.55933 -16.4526 -3.30966 -0.7531 -40.938 3.55271e-015 -2.72307 32.8621 1.51233 7.10543e-015 -40.1986 -7.10543e-015 -11.693 -19.5062 -4.77917 7.10543e-015 -4.4182 9.239 -1.71452e-015 -7.95139e-016 -0 9.4119 3.9773 -0.7758 9.57901 -4.79653 0.862739 0.7532 -40.9383 7.10543e-015 0.0879841 20.1797 -0.249094 0 -40.1986 0 -1.87482 -6.89405 25.0245 0 -4.4182 9.239 7.95139e-016 -9.15721e-007 -0 
10.1144 64.956 47.139 -7.01671e-015 7.01671e-015 180 -1.77636e-015 8.7983 -4.7612 -0.940963 -0.568176 -1.31247 1.77636e-015 8.0291 0.4195 -1.89482 -1.11457 -2.63427 3.55271e-015 9.9351 -2.2114 -1.89483 -1.11457 -2.63428 0 22.3885 -0.4656 0.84586 16.5307 -0.265002 -0.0001 12.643 3.4389 11.0488 2.83164 -0.265131 2.2603 21.606 7.4023 -64.9827 -3.10604 -8.24174 13.5163 -1.1332 -5.0146 88.2464 15.9207 11.6807 -0.0994999 -28.05 -0.2431 -118.324 -45.6695 -63.0115 0.0679 -23.3996 -0.1402 -33.2535 0.25108 -12.7378 0.793199 -9.06901 2.5189 6.36111e-015 -5.1684e-015 -5.96354e-016 -0.827199 -3.3923 0.5977 6.36111e-015 -4.67144e-015 9.93923e-016 -0.5649 -2.3158 0.4082 -6.21579e-006 -2.706e-005 -1.80605e-007 0.915899 -9.20441 0.2193 6.36111e-015 -5.1684e-015 -5.96354e-016 0.0117 -4.1944 -0.0248 -0.0128054 0.00229979 8.03806e-005 0.0071 -2.3249 -0.0142 6.23388e-009 -7.6054e-006 2.97645e-006 0.6113 -8.7231 -2.0637 6.36111e-015 -5.1684e-015 -5.96354e-016 -0.1927 -3.8059 -0.2383 -0.0160377 0.0029577 0.00085664 -0.1091 -2.1688 -0.1362 -6.36111e-015 -1.09332e-015 3.97569e-015 -0.6151 -8.0947 -3.5641 6.36111e-015 -5.1684e-015 -5.96354e-016 -0.4882 -2.341 -0.6462 -0.0126138 0.00309179 0.00283429 -0.3575 -1.7167 -0.4742 9.54166e-015 2.98177e-016 -1.19271e-015 -1.42 -1.8761 1.4223 6.36111e-015 -5.1684e-015 -5.96354e-016 -1.1471 -3.4929 2.6334 6.36111e-015 -4.67144e-015 9.93923e-016 -0.822999 -2.3 1.6571 -6.21579e-006 -2.706e-005 -1.80605e-007 -2.2603 21.606 7.4023 57.6134 -0.542268 30.3215 -13.5187 -1.1334 -5.0155 -95.7126 16.4052 -13.3844 0.0994 -28.0499 -0.2431 128.819 -50.4563 72.791 -0.0679 -23.3996 -0.1402 35.3229 -7.40161 30.9563 -0.7932 -9.06911 2.5189 -0 -3.18055e-015 -0 0.8272 -3.3923 0.5977 5.74821e-006 1.79091e-006 2.16676e-006 0.565 -2.3158 0.4082 -3.18258e-006 -7.26355e-007 -4.69797e-006 -0.916 -9.20441 0.2193 -0 -3.18055e-015 -0 -0.0117 -4.1944 -0.0248 0.0128844 0.00230324 -8.41009e-005 -0.0071 -2.3249 -0.0142 4.77083e-015 2.33111e-008 -0 -0.6113 -8.72311 -2.0637 -0 -3.18055e-015 -0 0.1927 -3.8059 -0.2383 0.0163635 0.00304244 -0.000881418 0.1091 -2.1688 -0.1362 -6.36111e-015 0 -0 0.6151 -8.09471 -3.564 -0 -3.18055e-015 -0 0.4882 -2.341 -0.6462 0.0146292 0.00369623 -0.00327598 0.3574 -1.7166 -0.4742 3.18055e-015 -3.18055e-015 6.36111e-015 1.4199 -1.8761 1.4221 -0 -3.18055e-015 -0 1.1472 -3.4929 2.6336 5.74821e-006 1.79091e-006 2.16676e-006 0.8229 -2.3 1.6571 -3.18258e-006 -7.26355e-007 -4.69797e-006 -9.412 3.9771 -0.7758 -9.64741 -16.3802 -3.31353 -0.7531 -40.938 3.55271e-015 -2.67514 32.7148 1.48731 0 -40.1986 0 -11.6305 -19.4295 -4.74486 0 -4.4182 9.239 2.10002e-008 4.7505e-010 4.25368e-007 9.4119 3.9773 -0.7758 9.50191 -4.81928 0.865133 0.7532 -40.9383 0 0.0879783 20.1771 -0.248623 0 -40.1986 0 -1.79612 -6.9182 24.8669 0 -4.4182 9.239 1.95681e-006 -2.99614e-006 7.80234e-006 
10.0138 64.956 47.1438 -7.01671e-015 7.01671e-015 180 -1.77636e-015 8.7983 -4.7612 -0.948471 -0.572035 -1.31037 1.77636e-015 8.0291 0.4195 -1.90991 -1.12215 -2.63021 0 9.9351 -2.2114 -1.90991 -1.12215 -2.63022 0 22.3885 -0.4656 0.839765 16.4211 -0.262331 -0.0001 12.643 3.4389 10.9754 2.81309 -0.261521 2.2603 21.606 7.4023 -64.929 -3.07076 -8.33077 13.5163 -1.1332 -5.0146 88.2464 15.9207 11.6807 -0.0995 -28.05 -0.2431 -118.592 -45.8064 -63.1704 0.0679 -23.3996 -0.1402 -33.1879 0.347037 -12.7131 0.7932 -9.06901 2.5189 7.99185e-009 -7.92577e-006 2.98547e-006 -0.8272 -3.3923 0.5977 9.54166e-015 -2.38542e-015 3.97569e-016 -0.5649 -2.3158 0.4082 3.18055e-015 4.77083e-015 -7.95139e-016 0.9159 -9.20441 0.2193 7.99185e-009 -7.92577e-006 2.98547e-006 0.0117 -4.1944 -0.0248 -0.0128121 0.00234511 8.99592e-005 0.0071 -2.3249 -0.0142 3.18055e-015 -2.18663e-015 -1.19271e-015 0.6113 -8.72311 -2.0637 7.99185e-009 -7.92577e-006 2.98547e-006 -0.1927 -3.8059 -0.2383 -0.016056 0.00299861 0.000856293 -0.1091 -2.1688 -0.1362 5.63171e-006 1.46059e-005 -6.01946e-006 -0.6151 -8.0947 -3.5641 7.99185e-009 -7.92577e-006 2.98547e-006 -0.4882 -2.341 -0.6462 -0.0126261 0.0031421 0.00284184 -0.3575 -1.7167 -0.4742 -3.18055e-015 4.17448e-015 7.95139e-016 -1.42 -1.8761 1.4223 7.99185e-009 -7.92577e-006 2.98547e-006 -1.1471 -3.4929 2.6334 9.54166e-015 -2.38542e-015 3.97569e-016 -0.823 -2.3 1.6571 3.18055e-015 4.77083e-015 -7.95139e-016 -2.2603 21.606 7.4023 57.5685 -0.557946 30.3937 -13.5187 -1.1334 -5.0155 -95.6324 16.1613 -13.4032 0.0994 -28.0499 -0.2431 128.999 -50.5812 72.8653 -0.0679 -23.3996 -0.1402 35.1395 -7.49596 30.9073 -0.7932 -9.06911 2.5189 -6.36111e-015 -1.76119e-006 -3.18055e-015 0.8272 -3.3923 0.5977 0 1.76119e-006 -0 0.565 -2.3158 0.4082 -1.95531e-022 -1.76119e-006 -6.36111e-015 -0.916 -9.20441 0.2193 -6.36111e-015 -1.76119e-006 -3.18055e-015 -0.0117 -4.1944 -0.0248 0.0129412 0.00232565 -8.53752e-005 -0.0071 -2.3249 -0.0142 -1.59028e-015 -4.77083e-015 6.36111e-015 -0.6113 -8.72311 -2.0637 -6.36111e-015 -1.76119e-006 -3.18055e-015 0.1927 -3.8059 -0.2383 0.0163207 0.00302844 -0.000877196 0.1091 -2.1688 -0.1362 3.18055e-015 1.59028e-015 6.36111e-015 0.6151 -8.09471 -3.564 -6.36111e-015 -1.76119e-006 -3.18055e-015 0.4882 -2.341 -0.6462 0.0145407 0.0036768 -0.00325125 0.3574 -1.7166 -0.4742 4.77083e-015 3.18055e-015 -3.18055e-015 1.4199 -1.8761 1.4221 -6.36111e-015 -1.76119e-006 -3.18055e-015 1.1472 -3.4929 2.6336 0 1.76119e-006 -0 0.8229 -2.3 1.6571 -1.95531e-022 -1.76119e-006 -6.36111e-015 -9.412 3.9771 -0.7758 -9.73537 -16.3084 -3.31724 -0.7531 -40.938 3.55271e-015 -2.62737 32.5676 1.46244 7.10543e-015 -40.1986 0 -11.5681 -19.3525 -4.71061 0 -4.4182 9.239 1.58159e-006 5.06532e-007 -1.21505e-007 9.4119 3.9773 -0.7758 9.42482 -4.84182 0.867472 0.7532 -40.9383 0 0.0879647 20.1745 -0.248135 1.77636e-015 -40.1986 0 -1.71747 -6.94275 24.7093 0 -4.4182 9.239 -2.48367e-007 1.04072e-006 1.52089e-006 
